<svg width="171" height="301" viewBox="0 0 171 301" fill="none" xmlns="http://www.w3.org/2000/svg">
<g clip-path="url(#clip0_86_239)">
<rect x="144.584" y="200.979" width="7.06768" height="11.5651" fill="#E13C3C" stroke="#E13C3C"/>
<path d="M148.118 177.144V226.507" stroke="#E13C3C"/>
<rect x="132.931" y="188.414" width="7.06768" height="11.5651" fill="#E13C3C" stroke="#E13C3C"/>
<path d="M136.465 166.374V213.942" stroke="#E13C3C"/>
<rect x="121.277" y="164.181" width="7.06768" height="24.1303" fill="#E13C3C" stroke="#E13C3C"/>
<path d="M124.811 90.9825V196.889" stroke="#E13C3C"/>
<rect x="109.624" y="146.231" width="7.06768" height="16.9502" fill="#E13C3C" stroke="#E13C3C"/>
<path d="M113.158 61.3648L113.158 276.767" stroke="#E13C3C"/>
<rect x="86.3174" y="192.901" width="7.06768" height="26.8228" fill="#E13C3C" stroke="#E13C3C"/>
<path d="M89.8512 120.6L89.8512 239.969" stroke="#E13C3C"/>
<rect x="63.0107" y="228.802" width="7.06768" height="7.07759" fill="#E13C3C" stroke="#E13C3C"/>
<path d="M66.5446 202.274V253.432" stroke="#E13C3C"/>
<rect x="39.7041" y="241.367" width="7.06768" height="5.28257" fill="#E13C3C" stroke="#E13C3C"/>
<path d="M43.2379 183.426L43.2379 249.842" stroke="#E13C3C"/>
<rect x="28.0508" y="207.261" width="7.06768" height="33.1054" fill="#E13C3C" stroke="#E13C3C"/>
<path d="M31.5846 186.119L31.5846 248.944" stroke="#E13C3C"/>
<rect x="156.5" y="-4.5" width="5" height="217" fill="black" stroke="black"/>
<path d="M159.771 172.656V218.429" stroke="black"/>
<rect x="97.9707" y="146.231" width="7.06768" height="73.4933" fill="black" stroke="black"/>
<path d="M101.505 120.6V220.224" stroke="black"/>
<rect x="74.6641" y="192.901" width="7.06768" height="42.978" fill="black" stroke="black"/>
<path d="M78.1979 180.734V239.969" stroke="black"/>
<rect x="51.3574" y="228.802" width="7.06768" height="17.8477" fill="black" stroke="black"/>
<path d="M54.8912 195.094V254.329" stroke="black"/>
<rect x="16.3975" y="207.261" width="7.06768" height="17.8477" fill="black" stroke="black"/>
<path d="M19.9313 190.606L19.9313 256.124" stroke="black"/>
<rect x="2.95142" y="226.109" width="7.06768" height="42.978" fill="black" stroke="black"/>
<path d="M6.48523 223.814L6.48523 271.382" stroke="black"/>
</g>
<defs>
<clipPath id="clip0_86_239">
<rect width="207" height="324" fill="white" transform="translate(0 -23)"/>
</clipPath>
</defs>
</svg>
