<svg width="79" height="28" viewBox="0 0 79 28" fill="none" xmlns="http://www.w3.org/2000/svg">
<path d="M18.4161 4.85331C18.6113 4.97693 18.7653 5.15429 18.8591 5.36335C18.9528 5.57242 18.9822 5.80399 18.9434 6.02931L18.0926 10.9585C18.0243 11.3537 18.0607 11.7595 18.198 12.1368L20.3429 18.0285C21.3857 18.2315 22.31 18.4951 23.0293 18.8183C23.463 19.0131 23.8872 19.257 24.219 19.572C24.552 19.8881 24.885 20.3688 24.885 21C24.885 21.9893 24.0993 22.5983 23.5578 22.9133C22.938 23.2738 22.1192 23.5585 21.2115 23.7813C19.3771 24.2328 16.9052 24.5 14.22 24.5C11.5348 24.5 9.06287 24.2328 7.22849 23.7813C6.32078 23.5585 5.50195 23.2738 4.88219 22.9133C4.34065 22.5983 3.55499 21.9893 3.55499 21C3.55499 20.37 3.88679 19.8881 4.22096 19.572C4.55276 19.257 4.97699 19.012 5.4107 18.8183C6.13118 18.4951 7.0543 18.2315 8.09828 18.0273L11.0134 10.017C11.3529 9.08374 11.9854 8.28119 12.8193 7.72564L17.1114 4.86731C17.3035 4.73935 17.5295 4.66971 17.7614 4.66702C17.9933 4.66432 18.221 4.72985 18.4161 4.85331ZM22.2519 7.50281C22.4534 7.09097 22.5209 7.03731 22.6525 7.26014L22.7318 7.40947L22.7781 7.50281C23.2869 8.54644 24.0664 9.43943 25.0379 10.0916L25.3057 10.2631C25.6173 10.4498 25.6706 10.5035 25.3981 10.6808L25.3057 10.738C24.3042 11.3434 23.4827 12.1982 22.9238 13.216L22.6525 13.7398C22.5221 13.9626 22.4534 13.909 22.2519 13.4971C21.7431 12.4535 20.9636 11.5605 19.9921 10.9083L19.5691 10.64C19.4044 10.5233 19.415 10.4615 19.6319 10.3203L19.7243 10.262C20.8186 9.60041 21.6961 8.6425 22.2519 7.50281ZM9.00362 4.27581L9.08539 4.41931C9.45748 5.09597 10.0192 5.67464 10.7159 6.10514L10.9838 6.25797C11.203 6.37581 11.2362 6.41897 11.12 6.49714L10.9838 6.57531C10.2724 6.95007 9.66996 7.4974 9.23351 8.16547L8.99533 8.56681C8.90408 8.70214 8.8555 8.69047 8.77255 8.55747L8.6896 8.41514C8.30376 7.7235 7.74184 7.14254 7.05904 6.72931L6.79123 6.57531C6.572 6.45747 6.53882 6.41431 6.65495 6.33614L6.79123 6.25797C7.50259 5.88321 8.10503 5.33588 8.54147 4.66781L8.6896 4.41931C8.84602 4.13581 8.89697 4.10547 9.00362 4.27581Z" fill="#EFF1F4"/>
<path d="M38.1 23.1389L33.18 4.93908H37.6551L39.173 11.907C39.9406 15.4603 40.4117 17.6269 40.5862 18.4069C40.7781 17.5749 41.1881 15.9109 41.8162 13.415L44.0668 4.93908H49.327L51.5777 13.415C52.1883 15.7203 52.5983 17.3843 52.8077 18.4069C52.9996 17.5403 53.4707 15.3736 54.2209 11.907L55.7649 4.93908H60.083L55.1107 23.1389H50.5047L48.1494 14.299C47.783 12.895 47.4864 11.777 47.2596 10.945C47.0328 10.113 46.8496 9.43703 46.71 8.91703C46.6751 9.09037 46.6228 9.2897 46.553 9.51503C46.5006 9.72302 46.4396 9.94835 46.3698 10.191C46.2477 10.6763 46.0906 11.257 45.8987 11.933C45.7243 12.5917 45.5149 13.3716 45.2706 14.273L42.8368 23.1389H38.1Z" fill="#EFF1F4"/>
<path d="M61.7199 23.1389V10.139H65.5407V23.1389H61.7199ZM61.589 8.39704V4.86108H65.6454V8.39704H61.589Z" fill="#EFF1F4"/>
<path d="M67.7468 23.1389V19.8369L74.1585 13.129H68.0608V10.139H78.6598V12.843L71.7508 20.1229H79V23.1389H67.7468Z" fill="#EFF1F4"/>
</svg>
